<?xml version="1.0" encoding="UTF-8"?>
<svg id="Layer_1" xmlns="http://www.w3.org/2000/svg" version="1.1" viewBox="0 0 512 512">
  <!-- Generator: Adobe Illustrator 30.1.0, SVG Export Plug-In . SVG Version: 2.1.1 Build 136)  -->
  <defs>
    <style>
      .st0 {
        fill: #d9d4cd;
      }
    </style>
  </defs>
  <path class="st0" d="M131.36,28.18v161.85h1.24c25.42-36.59,59.53-50.23,94.26-50.23,84.34,0,134.57,69.45,134.57,161.23,0,101.08-48.37,181.69-140.15,181.69-37.21,0-69.45-11.78-91.78-49.61h-1.24v40.31h-51.47V28.18h54.57ZM304.99,309.09c0-86.82-32.87-120.3-89.3-120.3s-86.82,42.79-86.82,138.29c0,72.55,41.55,108.52,89.3,108.52,52.71,0,86.82-45.89,86.82-126.5Z"/>
  <path class="st0" d="M454.44,407.69v65.73h-64.49v-65.73h64.49Z"/>
</svg>