<?xml version="1.0" encoding="UTF-8"?>
<svg id="Layer_1" xmlns="http://www.w3.org/2000/svg" version="1.1" viewBox="0 0 511.13 511.13">
  <!-- Generator: Adobe Illustrator 30.1.0, SVG Export Plug-In . SVG Version: 2.1.1 Build 136)  -->
  <defs>
    <style>
      .st0 {
        fill: #d9d4cd;
      }
    </style>
  </defs>
  <path class="st0" d="M255.56,1.3C115.02,1.3,1.08,115.24,1.08,255.79s113.93,254.48,254.48,254.48,254.48-113.93,254.48-254.48S396.11,1.3,255.56,1.3ZM367.25,283.72c0,34.46-3.93,63.7-28.8,89-22.26,22.69-51.05,31.43-82.46,31.43s-60.65-8.74-82.91-30.99c-26.61-26.61-29.23-53.23-29.23-89.43V107.43h74.17v176.29c0,27.48,4.81,54.98,37.97,54.98s37.08-26.63,37.08-54.98V107.43h74.17v176.29Z"/>
</svg>